<svg version="1" xmlns="http://www.w3.org/2000/svg" width="933.333" height="933.333" viewBox="0 0 700.000000 700.000000"><path d="M95.8 48.7c-6.5 2.6-8.2 8.1-8 26.8.2 29.6 10.3 50.5 30.6 63.6 12.9 8.4 28.1 12.1 50.2 12.3 17.8.1 20.4-.5 23.1-5.8 1.5-2.9 1.9-13.3.8-21.6-.3-1.9-.7-5.1-1-7-1-7.6-8.9-28.8-11.5-31-.4-.3-2-2.5-3.7-5-1.7-2.5-5.5-6.8-8.5-9.7-15.1-14.2-35.2-21.6-64.4-23.7-2.3-.2-5.7.3-7.6 1.1zM301.2 73c-11.3 4.4-31.5 15.8-42.7 24.1-2.5 1.9-19.2 16.6-21 18.5-10.2 11-15.6 17.9-23.8 30.4-3 4.7-7.4 12.3-9.7 17-2.2 4.7-4.7 9.6-5.5 11-1.6 3.1-7.3 20.1-8 24-.5 2.6.3 3.5 8.1 9.9 4.8 3.9 9.4 7.1 10.4 7.1.9 0 2.8-1 4.2-2.3 7.4-6.6 12.2-10.1 21.1-15.2 6.6-3.8 7.2-4.5 11.6-12.6 8.4-15.7 15.1-24.8 26.4-36.4 13-13.1 22.3-19.5 44.7-30.7 11.6-5.9 17-13.3 17-23.3 0-12.2-8.7-21.8-21.3-23.5-3.8-.5-6.1-.1-11.5 2zM532.4 131.5c-4.9 2.1-7.2 5.7-7.9 12.9-.5 4.5-.6 22.7-.1 25.1.2 1.1.7 4.2 1.1 6.9 1.6 11.2 7.3 24.3 14.3 32.7 14.5 17.6 37 25.9 68.7 25.5 14.4-.2 17-1.1 19.8-6.7 1.9-4 1.6-16.3-.8-28.9-1.3-6.6-4.2-15.6-7.3-22.1-12.4-26.1-37.8-42.2-71.3-45.4-3.5-.3-8-.8-10-1-1.9-.1-4.8.3-6.5 1zM663.2 147.1c-3.9.7-8.6 3.3-12 6.6-2.2 2.1-5.2 9.6-5.2 13.1 0 1.8 1.4 7.4 3 12.5 6.2 18.7 7.1 23.8 7.5 42.7.3 11-.1 17-1.5 25-4 21.9-12.9 42.6-25.2 58-2.3 3-2.8 4.7-3.2 11.6-.3 4.4-1 10.3-1.6 13-1.3 5.5-.7 8.9 1.6 9.8.8.3 4.6.1 8.2-.4 3.7-.6 10.4-1.2 15-1.4 4.5-.1 8.6-.7 9.1-1.2 4.1-4.7 13.8-18.5 17.6-24.9 11.4-19.2 19.6-44.1 22.4-67.5.9-8.1.7-32.7-.3-40-2.4-15.8-9.1-39.4-13.4-47.2-3.9-6.9-13.6-11.1-22-9.7z"/><path d="M100 206.6c-3.6.7-7.8 1.6-9.5 1.9-5.1 1-17.4 5.4-22.8 8.1-13.5 6.9-27.6 18.5-36.8 30.4-15.8 20.6-26.3 49.4-29.7 81.5-.9 9-.9 39.6.1 50 3.4 36.4 15.3 75.3 32.9 107.9 5.4 9.9 14.8 24.2 21.1 32.1 7.6 9.5 26.2 27 35.2 33.1 7.3 5 24.7 14.7 25.7 14.3.2 0 1.7.5 3.3 1.1 10.3 4 22.4 6.2 36 6.5 7.7.2 16 0 18.5-.5 2.5-.4 6.1-1.1 8.2-1.4 5.7-.9 14.4-4.4 19.9-8.2 2.8-1.9 5.8-3.4 6.6-3.4.8 0 3.3 1.3 5.6 2.8 11.8 7.9 23.5 10.7 44.7 10.6 13.3 0 17-.4 26.5-2.8 6.1-1.4 11.5-3 12.1-3.4.6-.4 3-3.4 5.4-6.7 9.6-13.3 22.7-22.9 37.2-27.1 7.3-2.2 8.4-6.9 2.8-11.9-5.1-4.5-11.7-16-14.9-25.5-5.2-16.1-4.5-34.6 2-49.8 2.1-4.9 9.6-16.4 13.1-20.3 7.1-7.7 24.7-18.9 29.8-18.9 2.9 0 8-3.9 8-6.1 0-1.1-2.5-5.1-5.5-8.7-6.5-7.8-11.8-18.3-14.5-28.5-2.8-10.8-2.2-27.5 1.4-38.2 3.7-11 9.5-20.3 17.6-28.5 6.1-6.1 17.4-14 20-14 .5 0 1.7-1.1 2.5-2.4 1.8-2.6 1.3-4.3-3.4-13.6-13.8-27.3-35.4-46.5-62.6-55.8-12.1-4.1-22.3-5.6-38.5-5.6-14-.1-17.9.2-27.3 1.9-8.9 1.7-26.9 10.1-35 16.3-5.1 3.9-16.5 16.2-20.2 21.7-6 8.8-7.6 8.6-14.7-1.2-13.4-18.7-30.6-30.5-52.8-36.3-10.6-2.8-37.4-3.6-48-1.4zM553 262.7c-23.2 2.7-40.9 17.5-46.7 38.8-1.3 5.2-1.8 16.7-.8 22 2.6 14.1 13.9 29.7 26.1 35.7 21.3 10.7 43.4 7.5 59.8-8.7 20.2-19.8 21.3-50.3 2.6-70.8-8.4-9.2-20.1-15.3-31.5-16.4-2.7-.2-5.4-.5-6-.7-.5-.1-2.1-.1-3.5.1z"/><path d="M425.7 295.6c-.1.1-2 .5-4.1.8-11.7 1.9-21.6 7.3-30.3 16.6-4.3 4.6-10.8 18.1-12.1 25-5.1 27.5 13.8 54.7 41.2 59.5 27.1 4.7 52.2-11.5 59.1-38.2 7.4-28.2-12.3-58.3-41.2-62.9-3.9-.6-12.2-1.2-12.6-.8zM635.8 358.5c-22.6 5.6-39 26.6-39 49.8 0 40.8 46.6 65.7 79.7 42.6 5.3-3.7 11.5-9.5 11.5-10.8 0-.6.4-1.1 1-1.1 1.4 0 7.7-13.6 9-19.5 3.8-16.9-1.2-34.4-13.5-46.9-12.8-13-31.4-18.4-48.7-14.1zM513.1 390.6c-25.1 4.2-43.6 27-42.6 52.6 1.5 38.6 43.8 61.8 77.2 42.2 9.2-5.4 17-14.2 21.1-24 2.8-6.7 3.4-9.6 3.9-18.1 1.9-32.1-27.5-58.1-59.6-52.7zM390 422.8c-10.3.9-23.9 7.7-32.2 16.3-5 5.2-10.8 16.2-12.7 24.3-4.5 18.6 3.8 40 19.9 51.5 16 11.4 38.9 12.8 56 3.5 4.8-2.7 15-11.6 15-13.2 0-.5.6-1.5 1.4-2.1.8-.7 2.5-3.6 3.9-6.5 9-19 6.2-40.9-7.1-55.7-11.1-12.3-28.4-19.4-44.2-18.1zM609 484.1c-18.1 2-33.5 12.8-41.3 28.9-4.3 8.9-4.9 11.8-5 23-.2 33.6 32.1 57.6 65.4 48.6 6.6-1.8 14.9-6.4 19.8-10.9 3.6-3.5 11.1-13.1 11.1-14.4 0-.5.8-2.4 1.9-4.3 2.6-5 4.4-16.1 3.9-23.8-1.3-17.3-12.1-33.4-27.8-41.6-7.8-4-20-6.4-28-5.5zM482.5 516.8c-4.8.5-13.6 3.2-19.2 5.9-11.8 5.7-23.7 21.5-26.4 35.3-1.2 6.3-.8 21.8.7 24.2.5.7.9 1.8 1 2.5.6 4 6.8 13.6 12.4 19.3 20.7 21 52.5 20.6 73.6-.8 4.9-5 11.1-15.9 12-21.1.3-1.4.8-4 1.3-5.6 1.4-5.5.4-17.7-1.9-24.5-2.5-7.2-7.4-15.2-12.3-20.1-4.8-4.7-14.4-10.7-20.1-12.5-5.6-1.7-16.4-3.1-21.1-2.6zM353.6 550.1c-20.7 3.2-38.6 20.7-43 42.2-5.2 25.4 10.9 50.8 36.9 58.3 12.2 3.5 30.3 1 39.4-5.5 1.6-1.2 3.3-2.1 3.8-2.1s3.6-2.9 6.9-6.4c19.3-20.5 19.3-51.3-.1-71.2-11.5-11.9-28.1-17.6-43.9-15.3z"/></svg>